Coordinates
version=1
nRows=17
nColumns=40
inDegrees=yes

Units are S.I. units (second, meters, Newtons, ...)
Angles are in degrees.

endheader
time	pelvis_tilt	pelvis_list	pelvis_rotation	pelvis_tx	pelvis_ty	pelvis_tz	hip_flexion_r	hip_adduction_r	hip_rotation_r	knee_angle_r	knee_angle_r_beta	ankle_angle_r	subtalar_angle_r	mtp_angle_r	hip_flexion_l	hip_adduction_l	hip_rotation_l	knee_angle_l	knee_angle_l_beta	ankle_angle_l	subtalar_angle_l	mtp_angle_l	lumbar_extension	lumbar_bending	lumbar_rotation	arm_flex_r	arm_add_r	arm_rot_r	elbow_flex_r	pro_sup_r	wrist_flex_r	wrist_dev_r	arm_flex_l	arm_add_l	arm_rot_l	elbow_flex_l	pro_sup_l	wrist_flex_l	wrist_dev_l
      0.00000000	     -1.84221861	     -3.24481043	      2.03707647	     -0.78082585	      0.93159315	      0.99084031	     26.82854853	     -5.74219655	    -16.82733499	    -24.63242367	     -0.42991690	     -6.65708974	     -3.87691489	     -4.22246704	     -9.45625373	      8.30855884	      5.78649973	    -28.86463425	     -0.50378291	      3.24858674	     -2.78035657	    -16.95073580	     -1.95912100	      3.82379840	    -12.91578415	     -9.94605269	    -10.40408483	    -29.61085210	     16.59937424	     89.95437384	      0.00000000	      0.00000000	      8.04720626	     11.70236660	     -2.96113299	     56.25823210	     89.95437384	      0.00000000	      0.00000000
      0.01000000	     -1.40503134	     -3.19760955	      1.84227079	     -0.76929996	      0.93323022	      0.99576584	     26.09824900	     -5.30667986	    -16.21353030	    -25.49216124	     -0.44492215	     -6.18959678	     -3.59566748	     -4.22532519	     -9.19529940	      8.51688538	      6.28950883	    -31.32162085	     -0.54666541	      1.41262377	     -1.68575639	    -16.02567671	     -2.37625269	      3.67470962	    -12.25774476	     -9.97764467	    -10.32667598	    -29.06726634	     15.97286564	     89.95437384	      0.00000000	      0.00000000	      7.63960254	     11.31856537	     -2.80857738	     55.08123025	     89.95437384	      0.00000000	      0.00000000
      0.02000000	     -1.13832067	     -4.51803366	      1.59779572	     -0.75689879	      0.93499601	      1.00216019	     24.83713682	     -2.97717549	    -15.50430068	    -25.05966344	     -0.43737364	     -5.57862405	     -4.83240155	     -4.35366486	     -8.50909504	     10.70687109	      8.36288753	    -34.18168886	     -0.59658301	     -1.14532672	      0.32875003	    -14.99484341	     -2.36820512	      4.94562917	    -11.66565077	     -9.70558044	    -10.43495023	    -28.59389565	     14.71774198	     89.95437384	      0.00000000	      0.00000000	      6.96945248	     10.92118036	     -2.59697299	     53.69809124	     89.95437384	      0.00000000	      0.00000000
      0.03000000	     -0.80370236	     -4.86136885	      1.42307673	     -0.74529854	      0.93695852	      1.00734951	     23.82368626	     -2.03126642	    -15.08843403	    -25.33269354	     -0.44213891	     -4.55399673	     -5.55286001	     -4.39860777	     -7.75866238	     11.49270071	      9.29791952	    -36.84814493	     -0.64312145	     -4.16572402	      2.48958870	    -13.83545589	     -2.57630385	      5.18462678	    -11.04691337	     -9.45893163	    -10.43916849	    -27.84475148	     13.72095715	     89.95437384	      0.00000000	      0.00000000	      6.49251228	     10.61373170	     -2.64207086	     52.05054187	     89.95437384	      0.00000000	      0.00000000
      0.04000000	     -0.60590211	     -5.38169888	      1.24557418	     -0.73441608	      0.93887419	      1.01260626	     22.82848749	     -0.75370013	    -14.24765960	    -25.18245100	     -0.43951668	     -3.90813696	     -6.08997571	     -4.34959317	     -6.54449301	     12.45726221	     10.05183886	    -39.75359568	     -0.69383113	     -7.14346198	      5.39923265	    -12.59430012	     -2.73469960	      5.62349776	    -10.40600266	     -9.17111871	    -10.43431636	    -27.12983771	     12.93785001	     89.95437384	      0.00000000	      0.00000000	      6.11217169	     10.23035066	     -2.50697147	     50.18009216	     89.95437384	      0.00000000	      0.00000000
      0.05000000	     -0.49512025	     -5.93361216	      1.12065275	     -0.72396143	      0.94071002	      1.01768805	     21.88568234	      0.54825624	    -13.44902844	    -24.86226426	     -0.43392837	     -3.45336054	     -6.86385065	     -4.22223625	     -5.04352112	     13.39888363	     10.49132884	    -42.69513153	     -0.74517062	     -9.36090541	      8.75507903	    -11.47701005	     -2.83947736	      6.09074497	     -9.77734894	     -8.82966655	    -10.41458832	    -26.30093912	     12.18275256	     89.95437384	      0.00000000	      0.00000000	      5.83590089	      9.81579820	     -2.26931756	     48.15091140	     89.95437384	      0.00000000	      0.00000000
      0.06000000	     -0.96038974	     -6.32305192	      1.05083984	     -0.71459756	      0.94163237	      1.02234510	     21.69047484	      1.70813307	    -12.33177609	    -24.61590278	     -0.42962855	     -2.84878733	     -9.32943733	      1.71607875	     -2.47640840	     14.04289062	     10.51887190	    -46.23619886	     -0.80697390	     -7.70218112	     11.90529437	     -0.72827645	     -2.35890567	      6.37737353	     -9.39894903	     -8.62695928	    -10.43588224	    -24.21217993	     11.91859295	     89.95437384	      0.00000000	      0.00000000	      5.43502445	      9.44349350	     -1.83893822	     46.09504808	     89.95437384	      0.00000000	      0.00000000
      0.07000000	     -1.11818361	     -6.54630195	      1.05301727	     -0.70488754	      0.94296537	      1.02637421	     21.08641080	      2.40183428	    -11.91784027	    -24.36990386	     -0.42533506	     -2.44683136	     -9.67156217	      1.65035959	     -0.50768425	     14.45167907	     10.61527749	    -49.00425419	     -0.85528558	     -6.91906794	     15.08539264	     -0.24331589	     -2.23324889	      6.53383953	     -8.90074737	     -8.27495132	    -10.38565131	    -23.15768510	     11.46809190	     89.95437384	      0.00000000	      0.00000000	      5.20863761	      9.02761561	     -1.51976914	     43.80805748	     89.95437384	      0.00000000	      0.00000000
      0.08000000	     -1.39969288	     -6.54369490	      1.34243396	     -0.69594663	      0.94415291	      1.02944354	     20.69845696	      2.68687236	    -11.73450766	    -24.25855226	     -0.42339161	     -1.88163193	    -10.26199800	      2.49918620	      1.88601195	     14.46831700	     10.26319762	    -51.91683758	     -0.90611975	     -3.15910096	     16.44213094	      9.83468989	     -2.00349091	      6.46413361	     -8.85635583	     -7.87124813	    -10.42668349	    -20.93575556	     11.22249258	     89.95437384	      0.00000000	      0.00000000	      5.03418082	      8.64189007	     -0.99459743	     41.33611641	     89.95437384	      0.00000000	      0.00000000
      0.09000000	     -1.08389242	     -6.42584628	      1.58458543	     -0.68652185	      0.94638849	      1.03248414	     19.50785309	      2.84646639	    -11.68403988	    -23.95924261	     -0.41816767	     -1.25944863	    -10.31174945	      2.39070547	      3.28331533	     14.36609256	     10.33278495	    -53.92417173	     -0.94115434	     -1.70124016	     17.67844180	      9.60299835	     -2.48460572	      6.27547166	     -8.48200764	     -7.24404792	    -10.29704893	    -20.46018613	     10.75466035	     89.95437384	      0.00000000	      0.00000000	      5.00800255	      8.38221581	     -0.86917969	     38.90192329	     89.95437384	      0.00000000	      0.00000000
      0.10000000	     -1.66208543	     -6.53066606	      2.16893917	     -0.67803235	      0.94696704	      1.03500787	     19.38087517	      3.02515748	    -12.23343941	    -23.69550248	     -0.41356454	     -0.86172054	    -10.40503567	      2.30591082	      6.17128864	     14.44494312	      9.80770018	    -56.30191998	     -0.98265388	      0.25590008	     18.25753618	     10.31974603	     -1.92699897	      6.30432261	     -8.72267671	     -6.83473055	    -10.28395590	    -18.53820870	     10.75912019	     89.95437384	      0.00000000	      0.00000000	      4.79550589	      8.00521712	     -0.03620396	     36.36276526	     89.95437384	      0.00000000	      0.00000000
      0.11000000	     -1.63468759	     -6.27626606	      2.63017711	     -0.66918991	      0.94868017	      1.03719496	     18.50291571	      2.85516780	    -12.60951917	    -23.36062124	     -0.40771976	     -0.31693748	    -10.22723081	      2.15048351	      8.07019454	     13.89006423	      9.42480398	    -58.03197741	     -1.01284908	      3.24681679	     18.56076268	     16.90150212	     -2.08390281	      5.96272950	     -8.77659737	     -6.40990212	    -10.29911577	    -16.04532422	     10.95197628	     89.95437384	      0.00000000	      0.00000000	      4.67265247	      7.74254699	      0.76314474	     33.83864493	     89.95437384	      0.00000000	      0.00000000
      0.12000000	     -1.45262977	     -6.00615832	      3.08604237	     -0.66036149	      0.95064206	      1.03938970	     17.37831652	      2.71840598	    -12.93435710	    -22.86093072	     -0.39899851	      0.21428435	    -10.12778012	      2.04432257	      9.68913487	     13.31435995	      9.15962226	    -59.24723228	     -1.03405928	      4.38725048	     18.75773440	     16.64400812	     -2.46027713	      5.61846258	     -8.59366487	     -5.76955117	    -10.15388452	    -15.65939188	     10.90460168	     89.95437384	      0.00000000	      0.00000000	      4.68423371	      7.62164516	      0.93228509	     31.29871509	     89.95437384	      0.00000000	      0.00000000
      0.13000000	     -1.63250877	     -5.76028948	      3.72574977	     -0.65197710	      0.95187377	      1.04101025	     16.71117598	      2.41560625	    -13.85830051	    -22.46693799	     -0.39212204	      0.72674119	     -9.49890141	      1.75096041	     11.87991377	     12.55086549	      8.49694516	    -60.40413989	     -1.05425112	      5.35309642	     18.80075174	     16.81955490	     -2.43979701	      5.30063405	     -8.81011589	     -5.17403723	    -10.09226234	    -14.42229965	     11.13604550	     89.95437384	      0.00000000	      0.00000000	      4.62030168	      7.32111426	      2.21818037	     28.70259294	     89.95437384	      0.00000000	      0.00000000
      0.14000000	     -1.54710965	     -5.33874140	      4.12532620	     -0.64331063	      0.95362430	      1.04293292	     15.63866706	      2.13189344	    -14.21769781	    -21.87302452	     -0.38175630	      1.26377800	     -9.32921457	      1.60472830	     13.45521272	     11.59946043	      8.22390080	    -60.95208767	     -1.06381462	      6.05874414	     18.77058984	     16.67947105	     -2.72361515	      4.78937430	     -8.61563505	     -4.55093933	     -9.98830394	    -13.77486669	     11.29231401	     89.95437384	      0.00000000	      0.00000000	      4.57546887	      7.36980117	      2.30500107	     26.27199221	     89.95437384	      0.00000000	      0.00000000
      0.15000000	     -1.53381354	     -4.89545414	      4.65092315	     -0.63450918	      0.95520796	      1.04412912	     14.68198440	      1.55225431	    -15.58581626	    -21.47245860	     -0.37476510	      1.84314170	     -8.11729227	      1.11060444	     15.04976724	     10.48746365	      7.84994065	    -61.16824057	     -1.06758720	      6.59792065	     18.70627323	     16.92164432	     -2.89389720	      4.29951952	     -8.78022016	     -3.98612650	    -10.03301014	    -12.30299602	     11.81174533	     89.95437384	      0.00000000	      0.00000000	      4.38562732	      7.18443070	      3.80943916	     23.89287157	     89.95437384	      0.00000000	      0.00000000
      0.16000000	     -1.55519858	     -4.48650674	      4.96286824	     -0.62636724	      0.95660404	      1.04612546	     13.79162603	      1.27399596	    -15.99767445	    -20.95136400	     -0.36567028	      2.30813247	     -7.64232329	      0.84341073	     16.62748901	      9.55352507	      7.81511635	    -61.13673257	     -1.06703728	      7.03003874	     18.56835125	     16.82646041	     -3.13022178	      3.76886186	     -8.54559343	     -3.25957341	     -9.95474523	    -11.69585288	     12.14613116	     89.95437384	      0.00000000	      0.00000000	      4.22470396	      7.39406045	      3.90777741	     21.89554123	     89.95437384	      0.00000000	      0.00000000
